<?xml version="1.0" encoding="UTF-8" standalone="no"?><!-- Generator: Gravit.io --><svg xmlns="http://www.w3.org/2000/svg" xmlns:xlink="http://www.w3.org/1999/xlink" style="isolation:isolate" viewBox="0 0 46 32" width="46pt" height="32pt"><defs><clipPath id="_clipPath_GFxmN7i1MXgUjbauzKSqpahBzGIJ0flc"><rect width="46" height="32"/></clipPath></defs><g clip-path="url(#_clipPath_GFxmN7i1MXgUjbauzKSqpahBzGIJ0flc)"><g><mask id="_mask_rGDG9FGd2iAH6v1lzTAbSUd8YobqZ5Mb" x="-200%" y="-200%" width="400%" height="400%"><rect x="-200%" y="-200%" width="400%" height="400%" style="fill:white;"/><path d=" M 1 8.781 L 1 1 L 45 1 L 45 31 L 1 31 L 1 8.781 Z " fill="black" stroke="none"/></mask><path d=" M 1 8.781 L 1 1 L 45 1 L 45 31 L 1 31 L 1 8.781 Z " fill="rgb(235,235,235)" mask="url(#_mask_rGDG9FGd2iAH6v1lzTAbSUd8YobqZ5Mb)" vector-effect="non-scaling-stroke" stroke-width="2" stroke="rgb(0,0,0)" stroke-opacity="100" stroke-linejoin="miter" stroke-linecap="square" stroke-miterlimit="3"/><path d=" M 1 8.781 L 1 1 L 45 1 L 45 31 L 1 31 L 1 8.781 Z " fill="rgb(235,235,235)"/><path d=" M 1 3.594 L 1 1 L 45 1 L 45 11 L 1 11 L 1 3.594 Z " fill="rgb(255,255,255)"/><path d=" M 1 13.594 L 1 11 L 45 11 L 45 21 L 1 21 L 1 13.594 Z " fill="rgb(0,88,170)"/><path d=" M 1 23.594 L 1 21 L 45 21 L 45 31 L 1 31 L 1 23.594 Z " fill="rgb(224,18,27)"/></g></g></svg>