<?xml version="1.0" encoding="UTF-8" standalone="no"?><!-- Generator: Gravit.io --><svg xmlns="http://www.w3.org/2000/svg" xmlns:xlink="http://www.w3.org/1999/xlink" style="isolation:isolate" viewBox="0 0 41.5 41.5" width="41.5pt" height="41.5pt"><defs><clipPath id="_clipPath_iVF3rd7QksCSQoyU38b0PVpsN1Viuh8m"><rect width="41.5" height="41.5"/></clipPath></defs><g clip-path="url(#_clipPath_iVF3rd7QksCSQoyU38b0PVpsN1Viuh8m)"><clipPath id="_clipPath_NzoDLpegiPXjJkjAIyIxOsxPcFNFN2mK"><rect x="0" y="0" width="41.5" height="41.5" transform="matrix(1,0,0,1,0,0)" fill="rgb(255,255,255)"/></clipPath><g clip-path="url(#_clipPath_NzoDLpegiPXjJkjAIyIxOsxPcFNFN2mK)"><g><path d=" M 32.799 39.832 L 20.86 33.354 L 9.004 40 L 11.188 26.085 L 1.5 16.309 L 14.788 14.187 L 20.656 1.5 L 26.685 14.104 L 40 16.038 L 30.438 25.949 L 32.799 39.832 Z " fill="rgb(255,255,255)"/><path d=" M 20.75 33.468 L 9.098 40 L 11.282 26.085 L 1.594 16.309 L 14.882 14.187 L 20.75 1.5 L 20.75 1.5 L 20.75 33.468 L 20.75 33.468 Z " fill="rgb(255,241,1)" vector-effect="non-scaling-stroke" stroke-width="0.5" stroke="rgb(0,0,0)" stroke-linejoin="miter" stroke-linecap="square" stroke-miterlimit="3"/><path d=" M 32.799 39.832 L 20.86 33.354 L 9.004 40 L 11.188 26.085 L 1.5 16.309 L 14.788 14.187 L 20.656 1.5 L 26.685 14.104 L 40 16.038 L 30.438 25.949 L 32.799 39.832 Z " fill="none" vector-effect="non-scaling-stroke" stroke-width="1" stroke="rgb(0,0,0)" stroke-opacity="100" stroke-linejoin="miter" stroke-linecap="square" stroke-miterlimit="3"/></g></g></g></svg>